<?xml version="1.0" standalone="no"?>
<!DOCTYPE svg PUBLIC "-//W3C//DTD SVG 20010904//EN"
 "http://www.w3.org/TR/2001/REC-SVG-20010904/DTD/svg10.dtd">
<svg version="1.0" xmlns="http://www.w3.org/2000/svg"
 width="260.000000pt" height="260.000000pt" viewBox="0 0 260.000000 260.000000"
 preserveAspectRatio="xMidYMid meet">
<metadata>
Created by potrace 1.14, written by Peter Selinger 2001-2017
</metadata>
<g transform="translate(0.000000,260.000000) scale(0.100000,-0.100000)"
fill="#000000" stroke="none">
<path d="M0 1300 l0 -1300 1300 0 1300 0 0 1300 0 1300 -1300 0 -1300 0 0
-1300z m1044 359 c31 -83 53 -155 50 -160 -3 -5 0 -9 7 -9 6 0 9 -8 6 -20 -3
-11 -2 -18 3 -15 4 3 22 -37 40 -88 17 -50 36 -101 41 -112 16 -36 99 -268 99
-277 0 -4 -58 -8 -129 -8 l-130 0 -23 78 -24 77 -156 3 -157 3 -23 -78 -24
-78 -132 -3 c-73 -1 -132 1 -132 5 0 23 77 212 84 206 4 -4 4 -1 1 8 -4 11 53
184 92 279 3 8 7 20 8 25 3 9 82 230 106 293 8 22 12 22 173 22 l164 0 56
-151z m911 127 c110 -40 150 -96 143 -202 -5 -74 -39 -126 -100 -154 l-40 -18
36 -12 c82 -27 126 -90 126 -180 0 -92 -44 -161 -130 -205 -74 -37 -138 -45
-370 -45 l-220 0 0 421 0 421 253 -4 c212 -3 260 -7 302 -22z"/>
<path d="M811 1632 c-7 -28 -17 -55 -22 -58 -5 -3 -7 -9 -4 -14 9 -14 -26
-124 -43 -136 -10 -7 -11 -13 -4 -17 7 -5 6 -21 -3 -52 -8 -25 -11 -45 -7 -46
20 -1 197 3 199 5 3 3 -83 317 -96 351 -6 16 -10 9 -20 -33z"/>
<path d="M1660 1566 l0 -76 49 0 c89 0 131 27 131 83 0 40 -32 59 -110 65
l-70 5 0 -77z"/>
<path d="M1660 1236 l0 -86 65 0 c69 0 118 17 129 45 12 32 6 64 -18 92 -21
25 -31 28 -100 31 l-76 4 0 -86z"/>
</g>
</svg>
